<svg width="113" height="113" viewBox="0 0 113 113" fill="none" xmlns="http://www.w3.org/2000/svg">
<rect width="113" height="113" rx="56.5" fill="#FEF2CD"/>
<rect x="24" y="25" width="64" height="64" rx="32" fill="#FDD768"/>
<path d="M48.155 67.7825L49.5077 65.4641C46.9694 63.5142 45.3333 60.4482 45.3333 57.0001C45.3333 51.109 50.1089 46.3334 56 46.3334C61.891 46.3334 66.6666 51.109 66.6666 57.0001C66.6666 60.4482 65.0305 63.5142 62.4922 65.4641L63.8449 67.7825C67.1714 65.3579 69.3333 61.4315 69.3333 57.0001C69.3333 49.6363 63.3637 43.6667 56 43.6667C48.6362 43.6667 42.6666 49.6363 42.6666 57.0001C42.6666 61.4315 44.8285 65.3579 48.155 67.7825ZM50.8662 63.1358C49.1141 61.6684 48 59.4643 48 57.0001C48 52.5818 51.5817 49.0001 56 49.0001C60.4182 49.0001 64 52.5818 64 57.0001C64 59.4643 62.8858 61.6684 61.1337 63.1358L59.7604 60.7821C60.732 59.8161 61.3333 58.4783 61.3333 57.0001C61.3333 54.0546 58.9454 51.6667 56 51.6667C53.0544 51.6667 50.6666 54.0546 50.6666 57.0001C50.6666 58.4783 51.268 59.8161 52.2395 60.7821L50.8662 63.1358ZM54.6666 58.3334H57.3333V70.3334H54.6666V58.3334Z" fill="white"/>
</svg>
