<svg width="113" height="113" viewBox="0 0 113 113" fill="none" xmlns="http://www.w3.org/2000/svg">
<rect width="113" height="113" rx="56.5" fill="#FAD4D1"/>
<rect x="24" y="25" width="64" height="64" rx="32" fill="#F3948C"/>
<path d="M56 67.6667C61.891 67.6667 66.6666 62.8911 66.6666 57.0001C66.6666 51.109 61.891 46.3334 56 46.3334C50.1089 46.3334 45.3333 51.109 45.3333 57.0001C45.3333 62.8911 50.1089 67.6667 56 67.6667ZM56 70.3334C48.6362 70.3334 42.6666 64.3638 42.6666 57.0001C42.6666 49.6363 48.6362 43.6667 56 43.6667C63.3637 43.6667 69.3333 49.6363 69.3333 57.0001C69.3333 64.3638 63.3637 70.3334 56 70.3334ZM56 62.3334C58.9454 62.3334 61.3333 59.9455 61.3333 57.0001C61.3333 54.0546 58.9454 51.6667 56 51.6667C53.0544 51.6667 50.6666 54.0546 50.6666 57.0001C50.6666 59.9455 53.0544 62.3334 56 62.3334ZM56 65.0001C51.5817 65.0001 48 61.4183 48 57.0001C48 52.5818 51.5817 49.0001 56 49.0001C60.4182 49.0001 64 52.5818 64 57.0001C64 61.4183 60.4182 65.0001 56 65.0001ZM56 59.6667C54.5272 59.6667 53.3333 58.4729 53.3333 57.0001C53.3333 55.5273 54.5272 54.3334 56 54.3334C57.4728 54.3334 58.6666 55.5273 58.6666 57.0001C58.6666 58.4729 57.4728 59.6667 56 59.6667Z" fill="white"/>
</svg>
