<svg width="256" height="35" viewBox="0 0 256 35" fill="none" xmlns="http://www.w3.org/2000/svg">
<path d="M9.27514 17.5337L15.2867 14.0635C16.7014 13.2465 17.1858 11.4378 16.3688 10.0231C15.5519 8.60832 13.7432 8.12396 12.3284 8.94093L1.9408 14.9387L9.27514 17.5337Z" fill="#EA4335"/>
<path d="M13.8045 26.4558C14.8269 26.4558 15.8216 25.9254 16.3688 24.9767C17.1858 23.5619 16.7015 21.7532 15.2867 20.9362L4.89906 14.9385C3.48431 14.1215 1.67563 14.6059 0.858659 16.0206C0.0416879 17.4354 0.526046 19.2441 1.9408 20.061L12.3284 26.0588C12.7944 26.327 13.3033 26.4558 13.8045 26.4558Z" fill="#4285F4"/>
<path d="M24.1386 26.4561C24.6398 26.4561 25.1487 26.3288 25.6146 26.0591L36.0023 20.0613L28.7614 17.4111L22.6564 20.935C21.2416 21.752 20.7573 23.5606 21.5742 24.9754C22.1214 25.9242 23.1162 26.4561 24.1386 26.4561Z" fill="#FBBC04"/>
<path d="M34.5215 20.4582C35.5438 20.4582 36.5386 19.9279 37.0858 18.9791C37.9028 17.5643 37.4184 15.7557 36.0037 14.9387L25.616 8.94093C24.2013 8.12396 22.3926 8.60832 21.5756 10.0231C20.7587 11.4378 21.243 13.2465 22.6593 14.0635L33.047 20.0612C33.5099 20.3295 34.0187 20.4582 34.5215 20.4582Z" fill="#0F9D58"/>
<path d="M50.7356 14.2711C49.7715 14.2711 48.8789 14.0372 48.058 13.5695C47.2466 13.1017 46.6022 12.4573 46.1249 11.6364C45.6571 10.8154 45.4233 9.90854 45.4233 8.91575C45.4233 7.92296 45.6571 7.01609 46.1249 6.19512C46.6022 5.37416 47.2466 4.7298 48.058 4.26204C48.8789 3.79429 49.7715 3.56041 50.7356 3.56041C51.4898 3.56041 52.1962 3.69405 52.8549 3.96134C53.5231 4.22863 54.072 4.6057 54.5016 5.09255L53.6281 5.96602C53.3035 5.56508 52.8835 5.25961 52.368 5.0496C51.8621 4.83004 51.318 4.72026 50.7356 4.72026C50.0197 4.72026 49.3467 4.89686 48.7166 5.25006C48.0962 5.59372 47.595 6.08534 47.2131 6.72493C46.8408 7.35497 46.6547 8.08525 46.6547 8.91575C46.6547 9.74626 46.8408 10.4813 47.2131 11.1209C47.595 11.7509 48.0962 12.2426 48.7166 12.5958C49.3467 12.9394 50.0197 13.1113 50.7356 13.1113C51.423 13.1113 51.9957 13.0062 52.4539 12.7962C52.9217 12.5767 53.3274 12.2903 53.6711 11.9371C53.9193 11.6698 54.1197 11.3452 54.2725 10.9634C54.4252 10.5815 54.5159 10.1663 54.5445 9.71762H50.7643V8.58641H55.6901C55.7378 8.8537 55.7616 9.1019 55.7616 9.33101C55.7616 9.96105 55.6614 10.5768 55.4609 11.1782C55.2605 11.77 54.9407 12.2903 54.5016 12.739C53.5374 13.7604 52.2821 14.2711 50.7356 14.2711ZM60.4535 14.2711C59.7566 14.2711 59.1314 14.1088 58.5777 13.7842C58.024 13.4501 57.5897 12.9967 57.2747 12.4239C56.9692 11.8416 56.8164 11.1973 56.8164 10.4909C56.8164 9.78445 56.9692 9.14486 57.2747 8.57209C57.5897 7.98978 58.024 7.53635 58.5777 7.21178C59.1314 6.87767 59.7566 6.71061 60.4535 6.71061C61.1504 6.71061 61.7756 6.87767 62.3293 7.21178C62.8925 7.53635 63.3269 7.98978 63.6323 8.57209C63.9474 9.14486 64.1049 9.78445 64.1049 10.4909C64.1049 11.1973 63.9474 11.8416 63.6323 12.4239C63.3269 12.9967 62.8925 13.4501 62.3293 13.7842C61.7756 14.1088 61.1504 14.2711 60.4535 14.2711ZM60.4535 13.1685C60.8831 13.1685 61.284 13.0587 61.6563 12.8392C62.0286 12.6196 62.3245 12.3094 62.5441 11.9084C62.7732 11.498 62.8877 11.0254 62.8877 10.4909C62.8877 9.95627 62.7732 9.48852 62.5441 9.08758C62.3245 8.6771 62.0286 8.36208 61.6563 8.14252C61.284 7.92296 60.8831 7.81318 60.4535 7.81318C60.0335 7.81318 59.6373 7.92296 59.265 8.14252C58.8927 8.36208 58.592 8.6771 58.3629 9.08758C58.1434 9.48852 58.0336 9.95627 58.0336 10.4909C58.0336 11.0254 58.1434 11.498 58.3629 11.9084C58.592 12.3094 58.8927 12.6196 59.265 12.8392C59.6373 13.0587 60.0335 13.1685 60.4535 13.1685ZM68.7177 14.2711C68.0209 14.2711 67.3956 14.1088 66.8419 13.7842C66.2883 13.4501 65.8539 12.9967 65.5389 12.4239C65.2334 11.8416 65.0807 11.1973 65.0807 10.4909C65.0807 9.78445 65.2334 9.14486 65.5389 8.57209C65.8539 7.98978 66.2883 7.53635 66.8419 7.21178C67.3956 6.87767 68.0209 6.71061 68.7177 6.71061C69.4146 6.71061 70.0399 6.87767 70.5936 7.21178C71.1568 7.53635 71.5911 7.98978 71.8966 8.57209C72.2116 9.14486 72.3691 9.78445 72.3691 10.4909C72.3691 11.1973 72.2116 11.8416 71.8966 12.4239C71.5911 12.9967 71.1568 13.4501 70.5936 13.7842C70.0399 14.1088 69.4146 14.2711 68.7177 14.2711ZM68.7177 13.1685C69.1473 13.1685 69.5483 13.0587 69.9206 12.8392C70.2929 12.6196 70.5888 12.3094 70.8083 11.9084C71.0374 11.498 71.152 11.0254 71.152 10.4909C71.152 9.95627 71.0374 9.48852 70.8083 9.08758C70.5888 8.6771 70.2929 8.36208 69.9206 8.14252C69.5483 7.92296 69.1473 7.81318 68.7177 7.81318C68.2977 7.81318 67.9016 7.92296 67.5293 8.14252C67.157 8.36208 66.8563 8.6771 66.6272 9.08758C66.4076 9.48852 66.2978 9.95627 66.2978 10.4909C66.2978 11.0254 66.4076 11.498 66.6272 11.9084C66.8563 12.3094 67.157 12.6196 67.5293 12.8392C67.9016 13.0587 68.2977 13.1685 68.7177 13.1685ZM76.8674 17.364C76.0083 17.364 75.3067 17.1588 74.7625 16.7483C74.2184 16.3378 73.8509 15.8605 73.66 15.3164L74.7912 14.8439C74.9344 15.2639 75.1873 15.6028 75.5501 15.8605C75.9224 16.1278 76.3615 16.2615 76.8674 16.2615C77.6216 16.2615 78.1991 16.0371 78.6001 15.5885C79.0105 15.1493 79.2158 14.5336 79.2158 13.7413V12.9824H79.1585C78.9294 13.3451 78.6001 13.6458 78.1705 13.8845C77.7409 14.1231 77.2541 14.2425 76.7099 14.2425C76.1085 14.2425 75.5501 14.0802 75.0346 13.7556C74.5191 13.431 74.1086 12.9824 73.8032 12.4096C73.4977 11.8369 73.3449 11.1925 73.3449 10.4765C73.3449 9.76058 73.4977 9.11622 73.8032 8.54346C74.1086 7.97069 74.5191 7.52203 75.0346 7.19746C75.5501 6.87289 76.1085 6.71061 76.7099 6.71061C77.2541 6.71061 77.7409 6.82994 78.1705 7.06859C78.6001 7.30724 78.9294 7.60794 79.1585 7.97069H79.2158V6.93972H80.3756V13.7556C80.3756 14.5384 80.2229 15.2018 79.9174 15.746C79.6119 16.2901 79.1919 16.6958 78.6573 16.9631C78.1323 17.2304 77.5357 17.364 76.8674 17.364ZM76.8961 13.1399C77.3161 13.1399 77.7027 13.0349 78.0559 12.8249C78.4091 12.6053 78.6907 12.2951 78.9008 11.8941C79.1203 11.4932 79.2301 11.0207 79.2301 10.4765C79.2301 9.93241 79.1203 9.45988 78.9008 9.05894C78.6907 8.64846 78.4091 8.33822 78.0559 8.1282C77.7027 7.91819 77.3161 7.81318 76.8961 7.81318C76.4761 7.81318 76.0894 7.92296 75.7362 8.14252C75.383 8.35254 75.0967 8.65801 74.8771 9.05894C74.6671 9.45988 74.5621 9.93241 74.5621 10.4765C74.5621 11.0207 74.6671 11.4932 74.8771 11.8941C75.0967 12.2951 75.383 12.6053 75.7362 12.8249C76.0894 13.0349 76.4761 13.1399 76.8961 13.1399ZM82.1639 3.78951H83.3811V14.042H82.1639V3.78951ZM88.251 14.2711C87.5637 14.2711 86.948 14.1088 86.4039 13.7842C85.8693 13.4597 85.4493 13.011 85.1438 12.4383C84.8383 11.8655 84.6856 11.2164 84.6856 10.4909C84.6856 9.80354 84.8288 9.1735 85.1151 8.60073C85.4015 8.01842 85.8072 7.56021 86.3323 7.2261C86.8668 6.88244 87.4778 6.71061 88.1651 6.71061C88.8524 6.71061 89.4538 6.86812 89.9693 7.18314C90.4943 7.48862 90.8953 7.92296 91.1721 8.48618C91.449 9.0494 91.5874 9.69853 91.5874 10.4336C91.5874 10.5672 91.5778 10.6627 91.5587 10.72H85.917C85.9361 11.2545 86.065 11.708 86.3036 12.0803C86.5423 12.443 86.8382 12.7151 87.1914 12.8965C87.5542 13.0778 87.9265 13.1685 88.3083 13.1685C89.2056 13.1685 89.8977 12.7294 90.3846 11.8512L91.4585 12.3667C91.153 12.9394 90.7282 13.4024 90.1841 13.7556C89.6495 14.0993 89.0052 14.2711 88.251 14.2711ZM90.2987 9.7033C90.2796 9.41692 90.1984 9.13054 90.0552 8.84416C89.912 8.55778 89.6782 8.31435 89.3536 8.11388C89.0386 7.91342 88.6329 7.81318 88.1365 7.81318C87.6019 7.81318 87.1389 7.98501 86.7475 8.32867C86.3561 8.67233 86.1079 9.13054 86.0029 9.7033H90.2987ZM96.5307 3.78951H99.638C100.688 3.78951 101.604 4.00907 102.387 4.44819C103.17 4.87777 103.771 5.47917 104.191 6.2524C104.611 7.02563 104.821 7.91342 104.821 8.91575C104.821 9.91809 104.611 10.8059 104.191 11.5791C103.771 12.3523 103.17 12.9585 102.387 13.3976C101.604 13.8272 100.688 14.042 99.638 14.042H96.5307V3.78951ZM99.638 12.8821C100.85 12.8821 101.81 12.5337 102.516 11.8369C103.223 11.14 103.576 10.1663 103.576 8.91575C103.576 7.66522 103.223 6.69152 102.516 5.99466C101.81 5.29779 100.85 4.94936 99.638 4.94936H97.7478V12.8821H99.638ZM109.282 14.2711C108.595 14.2711 107.979 14.1088 107.435 13.7842C106.9 13.4597 106.48 13.011 106.175 12.4383C105.869 11.8655 105.717 11.2164 105.717 10.4909C105.717 9.80354 105.86 9.1735 106.146 8.60073C106.433 8.01842 106.838 7.56021 107.363 7.2261C107.898 6.88244 108.509 6.71061 109.196 6.71061C109.884 6.71061 110.485 6.86812 111 7.18314C111.526 7.48862 111.926 7.92296 112.203 8.48618C112.48 9.0494 112.619 9.69853 112.619 10.4336C112.619 10.5672 112.609 10.6627 112.59 10.72H106.948C106.967 11.2545 107.096 11.708 107.335 12.0803C107.573 12.443 107.869 12.7151 108.223 12.8965C108.585 13.0778 108.958 13.1685 109.339 13.1685C110.237 13.1685 110.929 12.7294 111.416 11.8512L112.49 12.3667C112.184 12.9394 111.759 13.4024 111.215 13.7556C110.681 14.0993 110.036 14.2711 109.282 14.2711ZM111.33 9.7033C111.311 9.41692 111.23 9.13054 111.086 8.84416C110.943 8.55778 110.709 8.31435 110.385 8.11388C110.07 7.91342 109.664 7.81318 109.168 7.81318C108.633 7.81318 108.17 7.98501 107.779 8.32867C107.387 8.67233 107.139 9.13054 107.034 9.7033H111.33ZM113.049 6.93972H114.366L116.543 12.6101H116.571L118.776 6.93972H120.065L117.158 14.042H115.927L113.049 6.93972ZM123.993 14.2711C123.306 14.2711 122.69 14.1088 122.146 13.7842C121.611 13.4597 121.191 13.011 120.886 12.4383C120.58 11.8655 120.427 11.2164 120.427 10.4909C120.427 9.80354 120.571 9.1735 120.857 8.60073C121.143 8.01842 121.549 7.56021 122.074 7.2261C122.609 6.88244 123.22 6.71061 123.907 6.71061C124.594 6.71061 125.196 6.86812 125.711 7.18314C126.236 7.48862 126.637 7.92296 126.914 8.48618C127.191 9.0494 127.329 9.69853 127.329 10.4336C127.329 10.5672 127.32 10.6627 127.301 10.72H121.659C121.678 11.2545 121.807 11.708 122.045 12.0803C122.284 12.443 122.58 12.7151 122.933 12.8965C123.296 13.0778 123.668 13.1685 124.05 13.1685C124.947 13.1685 125.64 12.7294 126.126 11.8512L127.2 12.3667C126.895 12.9394 126.47 13.4024 125.926 13.7556C125.391 14.0993 124.747 14.2711 123.993 14.2711ZM126.04 9.7033C126.021 9.41692 125.94 9.13054 125.797 8.84416C125.654 8.55778 125.42 8.31435 125.095 8.11388C124.78 7.91342 124.375 7.81318 123.878 7.81318C123.344 7.81318 122.881 7.98501 122.489 8.32867C122.098 8.67233 121.85 9.13054 121.745 9.7033H126.04ZM128.701 3.78951H129.918V14.042H128.701V3.78951ZM134.86 14.2711C134.163 14.2711 133.538 14.1088 132.984 13.7842C132.43 13.4501 131.996 12.9967 131.681 12.4239C131.375 11.8416 131.223 11.1973 131.223 10.4909C131.223 9.78445 131.375 9.14486 131.681 8.57209C131.996 7.98978 132.43 7.53635 132.984 7.21178C133.538 6.87767 134.163 6.71061 134.86 6.71061C135.557 6.71061 136.182 6.87767 136.735 7.21178C137.299 7.53635 137.733 7.98978 138.039 8.57209C138.354 9.14486 138.511 9.78445 138.511 10.4909C138.511 11.1973 138.354 11.8416 138.039 12.4239C137.733 12.9967 137.299 13.4501 136.735 13.7842C136.182 14.1088 135.557 14.2711 134.86 14.2711ZM134.86 13.1685C135.289 13.1685 135.69 13.0587 136.063 12.8392C136.435 12.6196 136.731 12.3094 136.95 11.9084C137.179 11.498 137.294 11.0254 137.294 10.4909C137.294 9.95627 137.179 9.48852 136.95 9.08758C136.731 8.6771 136.435 8.36208 136.063 8.14252C135.69 7.92296 135.289 7.81318 134.86 7.81318C134.44 7.81318 134.044 7.92296 133.671 8.14252C133.299 8.36208 132.998 8.6771 132.769 9.08758C132.55 9.48852 132.44 9.95627 132.44 10.4909C132.44 11.0254 132.55 11.498 132.769 11.9084C132.998 12.3094 133.299 12.6196 133.671 12.8392C134.044 13.0587 134.44 13.1685 134.86 13.1685ZM139.761 6.93972H140.92V7.98501H140.978C141.207 7.62226 141.536 7.32156 141.966 7.08291C142.395 6.83471 142.892 6.71061 143.455 6.71061C144.066 6.71061 144.629 6.87767 145.145 7.21178C145.66 7.53635 146.071 7.98501 146.376 8.55778C146.682 9.13054 146.834 9.7749 146.834 10.4909C146.834 11.2068 146.682 11.8512 146.376 12.4239C146.071 12.9967 145.66 13.4501 145.145 13.7842C144.629 14.1088 144.066 14.2711 143.455 14.2711C142.892 14.2711 142.391 14.1518 141.951 13.9131C141.522 13.6649 141.197 13.3547 140.978 12.9824H140.92L140.978 13.9704V17.1349H139.761V6.93972ZM143.269 13.1685C143.689 13.1685 144.075 13.0587 144.429 12.8392C144.791 12.6196 145.078 12.3094 145.288 11.9084C145.507 11.498 145.617 11.0254 145.617 10.4909C145.617 9.95627 145.507 9.48852 145.288 9.08758C145.078 8.6771 144.791 8.36208 144.429 8.14252C144.075 7.92296 143.689 7.81318 143.269 7.81318C142.849 7.81318 142.457 7.92296 142.095 8.14252C141.741 8.35254 141.455 8.66278 141.236 9.07326C141.025 9.4742 140.92 9.94673 140.92 10.4909C140.92 11.0254 141.025 11.498 141.236 11.9084C141.455 12.3189 141.741 12.6339 142.095 12.8535C142.457 13.0635 142.849 13.1685 143.269 13.1685ZM151.373 14.2711C150.685 14.2711 150.07 14.1088 149.525 13.7842C148.991 13.4597 148.571 13.011 148.265 12.4383C147.96 11.8655 147.807 11.2164 147.807 10.4909C147.807 9.80354 147.95 9.1735 148.237 8.60073C148.523 8.01842 148.929 7.56021 149.454 7.2261C149.988 6.88244 150.599 6.71061 151.287 6.71061C151.974 6.71061 152.575 6.86812 153.091 7.18314C153.616 7.48862 154.017 7.92296 154.294 8.48618C154.57 9.0494 154.709 9.69853 154.709 10.4336C154.709 10.5672 154.699 10.6627 154.68 10.72H149.039C149.058 11.2545 149.186 11.708 149.425 12.0803C149.664 12.443 149.96 12.7151 150.313 12.8965C150.676 13.0778 151.048 13.1685 151.43 13.1685C152.327 13.1685 153.019 12.7294 153.506 11.8512L154.58 12.3667C154.275 12.9394 153.85 13.4024 153.306 13.7556C152.771 14.0993 152.127 14.2711 151.373 14.2711ZM153.42 9.7033C153.401 9.41692 153.32 9.13054 153.177 8.84416C153.034 8.55778 152.8 8.31435 152.475 8.11388C152.16 7.91342 151.754 7.81318 151.258 7.81318C150.723 7.81318 150.26 7.98501 149.869 8.32867C149.478 8.67233 149.229 9.13054 149.124 9.7033H153.42ZM156.081 6.93972H157.241V8.09956H157.298C157.431 7.70818 157.704 7.38361 158.114 7.12587C158.534 6.85858 158.949 6.72493 159.36 6.72493C159.656 6.72493 159.933 6.76789 160.19 6.8538V8.17116C159.933 8.02797 159.598 7.95637 159.188 7.95637C158.854 7.95637 158.539 8.05661 158.243 8.25707C157.957 8.448 157.727 8.70574 157.556 9.03031C157.384 9.35487 157.298 9.70808 157.298 10.0899V14.042H156.081V6.93972ZM167.312 14.2711C166.797 14.2711 166.295 14.1661 165.809 13.9561C165.331 13.7365 164.906 13.4215 164.534 13.011C164.171 12.591 163.909 12.085 163.747 11.4932L164.906 11.0207C165.069 11.6316 165.369 12.1328 165.809 12.5242C166.248 12.9156 166.758 13.1113 167.341 13.1113C167.942 13.1113 168.448 12.9537 168.859 12.6387C169.269 12.3142 169.474 11.875 169.474 11.3214C169.474 10.8441 169.298 10.4527 168.944 10.1472C168.601 9.83218 168.033 9.54102 167.24 9.27373L166.596 9.04463C165.871 8.78688 165.279 8.448 164.821 8.02797C164.362 7.60794 164.133 7.02563 164.133 6.28104C164.133 5.79419 164.267 5.34552 164.534 4.93504C164.801 4.51502 165.169 4.1809 165.637 3.93271C166.114 3.68451 166.649 3.56041 167.24 3.56041C167.832 3.56041 168.348 3.67019 168.787 3.88975C169.236 4.10931 169.589 4.3766 169.847 4.69162C170.114 5.00664 170.295 5.31689 170.391 5.62236L169.259 6.10921C169.154 5.74646 168.935 5.42667 168.601 5.14983C168.267 4.86345 167.823 4.72026 167.269 4.72026C166.744 4.72026 166.295 4.86822 165.923 5.16415C165.551 5.46008 165.365 5.83237 165.365 6.28104C165.365 6.68197 165.522 7.01131 165.837 7.26906C166.152 7.51725 166.629 7.75113 167.269 7.97069L167.928 8.1998C168.796 8.51482 169.474 8.91098 169.961 9.38828C170.457 9.85604 170.706 10.4956 170.706 11.307C170.706 11.9657 170.534 12.5194 170.19 12.9681C169.856 13.4167 169.431 13.7461 168.916 13.9561C168.4 14.1661 167.866 14.2711 167.312 14.2711ZM174.589 14.1565C174.303 14.1565 174.035 14.1088 173.787 14.0134C173.549 13.9179 173.343 13.789 173.171 13.6267C172.981 13.4454 172.837 13.2353 172.742 12.9967C172.656 12.7485 172.613 12.4573 172.613 12.1232V8.04229H171.353V6.93972H172.613V4.82049H173.816V6.93972H175.563V8.04229H173.816V11.8225C173.816 12.2235 173.897 12.5194 174.059 12.7103C174.222 12.9203 174.47 13.0253 174.804 13.0253C175.1 13.0253 175.358 12.9585 175.577 12.8249V13.999C175.424 14.0563 175.276 14.0945 175.133 14.1136C175 14.1422 174.818 14.1565 174.589 14.1565ZM179.606 14.2711C178.728 14.2711 178.06 14.0181 177.602 13.5122C177.153 13.0062 176.929 12.3046 176.929 11.4073V6.93972H178.146V11.2068C178.146 12.5146 178.733 13.1685 179.907 13.1685C180.299 13.1685 180.647 13.0587 180.952 12.8392C181.267 12.6196 181.506 12.3332 181.668 11.98C181.84 11.6268 181.926 11.2545 181.926 10.8632V6.93972H183.129V14.042H181.983V12.9824H181.926C181.716 13.3451 181.396 13.6506 180.967 13.8988C180.547 14.147 180.093 14.2711 179.606 14.2711ZM187.823 14.2711C187.212 14.2711 186.649 14.1088 186.134 13.7842C185.618 13.4597 185.208 13.011 184.902 12.4383C184.597 11.8559 184.444 11.2068 184.444 10.4909C184.444 9.7749 184.597 9.13054 184.902 8.55778C185.208 7.97547 185.618 7.52203 186.134 7.19746C186.649 6.87289 187.212 6.71061 187.823 6.71061C188.377 6.71061 188.873 6.83471 189.312 7.08291C189.751 7.32156 190.081 7.62226 190.3 7.98501H190.358L190.3 7.01131V3.78951H191.503V14.042H190.358V12.9824H190.3C190.081 13.3547 189.751 13.6649 189.312 13.9131C188.873 14.1518 188.377 14.2711 187.823 14.2711ZM188.009 13.1685C188.429 13.1685 188.816 13.0635 189.169 12.8535C189.532 12.6339 189.818 12.3189 190.028 11.9084C190.248 11.498 190.358 11.0254 190.358 10.4909C190.358 9.94673 190.248 9.4742 190.028 9.07326C189.818 8.66278 189.532 8.35254 189.169 8.14252C188.816 7.92296 188.429 7.81318 188.009 7.81318C187.589 7.81318 187.198 7.92296 186.835 8.14252C186.482 8.36208 186.196 8.6771 185.976 9.08758C185.766 9.48852 185.661 9.95627 185.661 10.4909C185.661 11.0254 185.766 11.498 185.976 11.9084C186.196 12.3094 186.482 12.6196 186.835 12.8392C187.198 13.0587 187.589 13.1685 188.009 13.1685ZM196.385 14.2711C195.698 14.2711 195.082 14.1088 194.538 13.7842C194.004 13.4597 193.584 13.011 193.278 12.4383C192.973 11.8655 192.82 11.2164 192.82 10.4909C192.82 9.80354 192.963 9.1735 193.25 8.60073C193.536 8.01842 193.942 7.56021 194.467 7.2261C195.001 6.88244 195.612 6.71061 196.3 6.71061C196.987 6.71061 197.588 6.86812 198.104 7.18314C198.629 7.48862 199.03 7.92296 199.307 8.48618C199.583 9.0494 199.722 9.69853 199.722 10.4336C199.722 10.5672 199.712 10.6627 199.693 10.72H194.051C194.07 11.2545 194.199 11.708 194.438 12.0803C194.677 12.443 194.973 12.7151 195.326 12.8965C195.689 13.0778 196.061 13.1685 196.443 13.1685C197.34 13.1685 198.032 12.7294 198.519 11.8512L199.593 12.3667C199.287 12.9394 198.863 13.4024 198.318 13.7556C197.784 14.0993 197.14 14.2711 196.385 14.2711ZM198.433 9.7033C198.414 9.41692 198.333 9.13054 198.19 8.84416C198.046 8.55778 197.813 8.31435 197.488 8.11388C197.173 7.91342 196.767 7.81318 196.271 7.81318C195.736 7.81318 195.273 7.98501 194.882 8.32867C194.491 8.67233 194.242 9.13054 194.137 9.7033H198.433ZM201.094 6.93972H202.253V7.99933H202.311C202.511 7.63658 202.826 7.33111 203.256 7.08291C203.685 6.83471 204.144 6.71061 204.63 6.71061C205.499 6.71061 206.158 6.96358 206.606 7.46952C207.065 7.97547 207.294 8.66756 207.294 9.54579V14.042H206.091V9.73194C206.091 8.45277 205.494 7.81318 204.301 7.81318C203.919 7.81318 203.576 7.92296 203.27 8.14252C202.965 8.36208 202.726 8.64846 202.554 9.00167C202.392 9.35487 202.311 9.72717 202.311 10.1186V14.042H201.094V6.93972ZM211.394 14.1565C211.107 14.1565 210.84 14.1088 210.592 14.0134C210.353 13.9179 210.148 13.789 209.976 13.6267C209.785 13.4454 209.642 13.2353 209.546 12.9967C209.461 12.7485 209.418 12.4573 209.418 12.1232V8.04229H208.158V6.93972H209.418V4.82049H210.62V6.93972H212.367V8.04229H210.62V11.8225C210.62 12.2235 210.702 12.5194 210.864 12.7103C211.026 12.9203 211.274 13.0253 211.608 13.0253C211.904 13.0253 212.162 12.9585 212.382 12.8249V13.999C212.229 14.0563 212.081 14.0945 211.938 14.1136C211.804 14.1422 211.623 14.1565 211.394 14.1565ZM221.879 14.2711C220.896 14.2711 219.999 14.0372 219.187 13.5695C218.376 13.1017 217.736 12.4573 217.269 11.6364C216.81 10.8154 216.581 9.90854 216.581 8.91575C216.581 7.92296 216.81 7.01609 217.269 6.19512C217.736 5.37416 218.376 4.7298 219.187 4.26204C219.999 3.79429 220.896 3.56041 221.879 3.56041C222.653 3.56041 223.354 3.70837 223.984 4.0043C224.624 4.29068 225.173 4.70116 225.631 5.23574L224.772 6.08057C224.39 5.61281 223.96 5.26916 223.483 5.0496C223.015 4.83004 222.481 4.72026 221.879 4.72026C221.144 4.72026 220.467 4.89686 219.846 5.25006C219.226 5.59372 218.729 6.08534 218.357 6.72493C217.994 7.35497 217.813 8.08525 217.813 8.91575C217.813 9.74626 217.994 10.4813 218.357 11.1209C218.729 11.7509 219.226 12.2426 219.846 12.5958C220.467 12.9394 221.144 13.1113 221.879 13.1113C223.13 13.1113 224.189 12.6005 225.058 11.5791L225.932 12.4383C225.464 13.0015 224.882 13.4501 224.185 13.7842C223.488 14.1088 222.719 14.2711 221.879 14.2711ZM227.271 3.78951H228.488V14.042H227.271V3.78951ZM232.884 14.2711C232.005 14.2711 231.337 14.0181 230.879 13.5122C230.43 13.0062 230.206 12.3046 230.206 11.4073V6.93972H231.423V11.2068C231.423 12.5146 232.01 13.1685 233.184 13.1685C233.576 13.1685 233.924 13.0587 234.23 12.8392C234.545 12.6196 234.783 12.3332 234.946 11.98C235.117 11.6268 235.203 11.2545 235.203 10.8632V6.93972H236.406V14.042H235.261V12.9824H235.203C234.993 13.3451 234.673 13.6506 234.244 13.8988C233.824 14.147 233.37 14.2711 232.884 14.2711ZM241.886 14.2711C241.323 14.2711 240.822 14.1518 240.383 13.9131C239.953 13.6649 239.629 13.3547 239.409 12.9824H239.352V14.042H238.192V3.78951H239.409V7.01131L239.352 7.98501H239.409C239.638 7.62226 239.967 7.32156 240.397 7.08291C240.827 6.83471 241.323 6.71061 241.886 6.71061C242.497 6.71061 243.06 6.87767 243.576 7.21178C244.091 7.53635 244.502 7.98501 244.807 8.55778C245.113 9.13054 245.265 9.7749 245.265 10.4909C245.265 11.2068 245.113 11.8512 244.807 12.4239C244.502 12.9967 244.091 13.4501 243.576 13.7842C243.06 14.1088 242.497 14.2711 241.886 14.2711ZM241.7 13.1685C242.12 13.1685 242.507 13.0587 242.86 12.8392C243.223 12.6196 243.509 12.3094 243.719 11.9084C243.939 11.498 244.048 11.0254 244.048 10.4909C244.048 9.95627 243.939 9.48852 243.719 9.08758C243.509 8.6771 243.223 8.36208 242.86 8.14252C242.507 7.92296 242.12 7.81318 241.7 7.81318C241.28 7.81318 240.889 7.92296 240.526 8.14252C240.173 8.35254 239.886 8.66278 239.667 9.07326C239.457 9.4742 239.352 9.94673 239.352 10.4909C239.352 11.0254 239.457 11.498 239.667 11.9084C239.886 12.3189 240.173 12.6339 240.526 12.8535C240.889 13.0635 241.28 13.1685 241.7 13.1685ZM249.074 14.2711C248.32 14.2711 247.68 14.0802 247.155 13.6983C246.63 13.3165 246.262 12.844 246.052 12.2807L247.126 11.8082C247.317 12.2569 247.585 12.6005 247.928 12.8392C248.281 13.0778 248.663 13.1972 249.074 13.1972C249.532 13.1972 249.909 13.0969 250.205 12.8965C250.51 12.696 250.663 12.4526 250.663 12.1662C250.663 11.8894 250.549 11.6602 250.32 11.4789C250.1 11.2975 249.718 11.14 249.174 11.0063L248.2 10.7629C247.666 10.6388 247.208 10.4145 246.826 10.0899C246.453 9.76535 246.267 9.33578 246.267 8.8012C246.267 8.36208 246.391 7.98501 246.64 7.66999C246.897 7.35497 247.236 7.11632 247.656 6.95404C248.076 6.79175 248.534 6.71061 249.031 6.71061C249.642 6.71061 250.195 6.8538 250.692 7.14018C251.198 7.41702 251.556 7.81318 251.766 8.32867L250.692 8.78688C250.539 8.44322 250.305 8.19025 249.99 8.02797C249.685 7.86569 249.341 7.78454 248.959 7.78454C248.587 7.78454 248.248 7.87523 247.943 8.05661C247.647 8.23798 247.499 8.47186 247.499 8.75824C247.499 9.00644 247.594 9.20214 247.785 9.34533C247.986 9.48852 248.301 9.61739 248.73 9.73194L249.79 9.98969C250.496 10.1711 251.021 10.4431 251.365 10.8059C251.718 11.1591 251.895 11.5839 251.895 12.0803C251.895 12.4908 251.775 12.8631 251.537 13.1972C251.298 13.5313 250.964 13.7938 250.534 13.9847C250.105 14.1756 249.618 14.2711 249.074 14.2711Z" fill="#212529"/>
<path d="M48.4462 31.0219C47.8745 31.0219 47.3659 30.892 46.9204 30.6321C46.4749 30.3649 46.1297 29.9973 45.8846 29.5296C45.6396 29.0544 45.5171 28.5087 45.5171 27.8924V22.8696H46.4638V27.937C46.4638 28.5829 46.6345 29.1101 46.9761 29.5184C47.3176 29.9194 47.8076 30.1198 48.4462 30.1198C49.0847 30.1198 49.5747 29.9194 49.9163 29.5184C50.2652 29.1101 50.4397 28.5829 50.4397 27.937V22.8696H51.3864V27.8924C51.3864 28.5087 51.2676 29.0544 51.03 29.5296C50.7998 30.0048 50.462 30.3723 50.0165 30.6321C49.571 30.892 49.0476 31.0219 48.4462 31.0219ZM52.7815 25.3198H53.6836V26.1439H53.7282C53.8841 25.8618 54.1291 25.6242 54.4632 25.4311C54.7974 25.2381 55.1537 25.1416 55.5324 25.1416C56.2081 25.1416 56.7204 25.3383 57.0693 25.7318C57.4257 26.1253 57.6039 26.6636 57.6039 27.3467V30.8438H56.6684V27.4915C56.6684 26.4966 56.2043 25.9991 55.2763 25.9991C54.9793 25.9991 54.712 26.0845 54.4744 26.2553C54.2368 26.426 54.0512 26.6488 53.9175 26.9235C53.7913 27.1982 53.7282 27.4878 53.7282 27.7922V30.8438H52.7815V25.3198ZM59.5051 24.1615C59.3195 24.1615 59.1599 24.0947 59.0262 23.961C58.8926 23.8274 58.8258 23.6678 58.8258 23.4821C58.8258 23.2965 58.8926 23.1369 59.0262 23.0032C59.1599 22.8696 59.3195 22.8028 59.5051 22.8028C59.6907 22.8028 59.8504 22.8696 59.984 23.0032C60.1177 23.1369 60.1845 23.2965 60.1845 23.4821C60.1845 23.6678 60.1177 23.8274 59.984 23.961C59.8578 24.0947 59.6982 24.1615 59.5051 24.1615ZM59.0374 25.3198H59.9729V30.8438H59.0374V25.3198ZM60.8152 25.3198H61.8398L63.5327 29.73H63.5549L65.27 25.3198H66.2724L64.0116 30.8438H63.0538L60.8152 25.3198ZM69.3273 31.0219C68.7928 31.0219 68.3139 30.8957 67.8906 30.6433C67.4749 30.3908 67.1482 30.0419 66.9106 29.5964C66.673 29.1509 66.5542 28.646 66.5542 28.0818C66.5542 27.5472 66.6656 27.0571 66.8883 26.6117C67.1111 26.1588 67.4266 25.8024 67.835 25.5425C68.2507 25.2752 68.7259 25.1416 69.2605 25.1416C69.7951 25.1416 70.2628 25.2641 70.6638 25.5091C71.0721 25.7467 71.384 26.0845 71.5993 26.5226C71.8146 26.9606 71.9223 27.4655 71.9223 28.0372C71.9223 28.1412 71.9148 28.2154 71.9 28.2599H67.512C67.5268 28.6757 67.6271 29.0284 67.8127 29.318C67.9983 29.6001 68.2285 29.8117 68.5032 29.9528C68.7853 30.0939 69.0749 30.1644 69.3719 30.1644C70.0698 30.1644 70.6081 29.8229 70.9868 29.1398L71.822 29.5407C71.5844 29.9862 71.254 30.3463 70.8308 30.621C70.4151 30.8883 69.9139 31.0219 69.3273 31.0219ZM70.9199 27.4692C70.9051 27.2465 70.842 27.0237 70.7306 26.801C70.6192 26.5782 70.4373 26.3889 70.1849 26.233C69.9399 26.0771 69.6243 25.9991 69.2382 25.9991C68.8225 25.9991 68.4624 26.1328 68.1579 26.4001C67.8535 26.6673 67.6605 27.0237 67.5788 27.4692H70.9199ZM72.9893 25.3198H73.8914V26.2219H73.9359C74.0399 25.9174 74.2515 25.665 74.5707 25.4645C74.8974 25.2566 75.2204 25.1527 75.5396 25.1527C75.7698 25.1527 75.9851 25.1861 76.1856 25.2529V26.2775C75.9851 26.1662 75.7253 26.1105 75.406 26.1105C75.1461 26.1105 74.9011 26.1885 74.671 26.3444C74.4482 26.4929 74.27 26.6933 74.1364 26.9458C74.0027 27.1982 73.9359 27.4729 73.9359 27.7699V30.8438H72.9893V25.3198ZM78.7992 31.0219C78.2127 31.0219 77.7152 30.8734 77.3069 30.5765C76.8985 30.2795 76.6127 29.9119 76.4493 29.4739L77.2846 29.1064C77.4331 29.4553 77.641 29.7226 77.9083 29.9082C78.183 30.0939 78.48 30.1867 78.7992 30.1867C79.1556 30.1867 79.4489 30.1087 79.6791 29.9528C79.9167 29.7969 80.0355 29.6075 80.0355 29.3848C80.0355 29.1695 79.9464 28.9913 79.7682 28.8502C79.5974 28.7091 79.3004 28.5866 78.8772 28.4827L78.1199 28.2934C77.7041 28.1968 77.3477 28.0224 77.0507 27.7699C76.7612 27.5175 76.6164 27.1834 76.6164 26.7676C76.6164 26.426 76.7129 26.1328 76.9059 25.8877C77.1064 25.6427 77.37 25.4571 77.6967 25.3309C78.0234 25.2047 78.3797 25.1416 78.7658 25.1416C79.241 25.1416 79.6716 25.2529 80.0577 25.4757C80.4512 25.691 80.7297 25.9991 80.893 26.4001L80.0577 26.7564C79.9389 26.4892 79.757 26.2924 79.512 26.1662C79.2744 26.04 79.0071 25.9768 78.7101 25.9768C78.4206 25.9768 78.157 26.0474 77.9194 26.1885C77.6892 26.3295 77.5742 26.5114 77.5742 26.7342C77.5742 26.9272 77.6484 27.0794 77.7969 27.1908C77.9528 27.3022 78.1978 27.4024 78.532 27.4915L79.3561 27.692C79.9055 27.833 80.3139 28.0446 80.5812 28.3268C80.8559 28.6015 80.9932 28.9319 80.9932 29.318C80.9932 29.6372 80.9004 29.9268 80.7148 30.1867C80.5292 30.4465 80.2693 30.6507 79.9352 30.7992C79.6011 30.9477 79.2225 31.0219 78.7992 31.0219ZM82.508 24.1615C82.3224 24.1615 82.1627 24.0947 82.0291 23.961C81.8954 23.8274 81.8286 23.6678 81.8286 23.4821C81.8286 23.2965 81.8954 23.1369 82.0291 23.0032C82.1627 22.8696 82.3224 22.8028 82.508 22.8028C82.6936 22.8028 82.8532 22.8696 82.9869 23.0032C83.1205 23.1369 83.1873 23.2965 83.1873 23.4821C83.1873 23.6678 83.1205 23.8274 82.9869 23.961C82.8607 24.0947 82.701 24.1615 82.508 24.1615ZM82.0402 25.3198H82.9757V30.8438H82.0402V25.3198ZM86.5145 30.9328C86.2918 30.9328 86.0839 30.8957 85.8909 30.8215C85.7052 30.7472 85.5456 30.647 85.412 30.5208C85.2635 30.3797 85.1521 30.2164 85.0779 30.0307C85.011 29.8377 84.9776 29.6112 84.9776 29.3514V26.1773H83.9976V25.3198H84.9776V23.6715H85.9131V25.3198H87.2719V26.1773H85.9131V29.1175C85.9131 29.4293 85.9763 29.6595 86.1025 29.808C86.2287 29.9713 86.4217 30.053 86.6816 30.053C86.9118 30.053 87.1122 30.001 87.283 29.8971V30.8103C87.1642 30.8549 87.0491 30.8846 86.9378 30.8994C86.8338 30.9217 86.6927 30.9328 86.5145 30.9328ZM90.115 30.4874L87.8207 25.3198H88.8453L90.5604 29.3848H90.5827L92.2421 25.3198H93.2667L89.8142 33.2494H88.8453L90.115 30.4874ZM99.1399 31.0219C98.5979 31.0219 98.1116 30.8957 97.6809 30.6433C97.2503 30.3834 96.9125 30.0307 96.6675 29.5853C96.4299 29.1324 96.3111 28.6312 96.3111 28.0818C96.3111 27.5323 96.4299 27.0349 96.6675 26.5894C96.9125 26.1365 97.2503 25.7838 97.6809 25.5314C98.1116 25.2715 98.5979 25.1416 99.1399 25.1416C99.6819 25.1416 100.168 25.2715 100.599 25.5314C101.037 25.7838 101.375 26.1365 101.612 26.5894C101.857 27.0349 101.98 27.5323 101.98 28.0818C101.98 28.6312 101.857 29.1324 101.612 29.5853C101.375 30.0307 101.037 30.3834 100.599 30.6433C100.168 30.8957 99.6819 31.0219 99.1399 31.0219ZM99.1399 30.1644C99.474 30.1644 99.7859 30.079 100.075 29.9082C100.365 29.7375 100.595 29.4962 100.766 29.1843C100.944 28.8651 101.033 28.4975 101.033 28.0818C101.033 27.666 100.944 27.3022 100.766 26.9903C100.595 26.6711 100.365 26.426 100.075 26.2553C99.7859 26.0845 99.474 25.9991 99.1399 25.9991C98.8132 25.9991 98.5051 26.0845 98.2155 26.2553C97.926 26.426 97.6921 26.6711 97.5139 26.9903C97.3431 27.3022 97.2577 27.666 97.2577 28.0818C97.2577 28.4975 97.3431 28.8651 97.5139 29.1843C97.6921 29.4962 97.926 29.7375 98.2155 29.9082C98.5051 30.079 98.8132 30.1644 99.1399 30.1644ZM103.533 26.1773H102.498V25.3198H103.533V24.5513C103.533 24.1949 103.611 23.8831 103.767 23.6158C103.931 23.3485 104.146 23.1443 104.413 23.0032C104.688 22.8548 104.992 22.7805 105.327 22.7805C105.512 22.7805 105.661 22.7916 105.772 22.8139C105.891 22.8362 106.013 22.8696 106.14 22.9141V23.8385C105.902 23.7197 105.642 23.6603 105.36 23.6603C105.115 23.6603 104.907 23.7494 104.736 23.9276C104.566 24.0984 104.48 24.3397 104.48 24.6515V25.3198H105.906V26.1773H104.48V30.8438H103.533V26.1773ZM112.343 31.0219C111.771 31.0219 111.263 30.892 110.817 30.6321C110.372 30.3649 110.026 29.9973 109.781 29.5296C109.536 29.0544 109.414 28.5087 109.414 27.8924V22.8696H110.361V27.937C110.361 28.5829 110.531 29.1101 110.873 29.5184C111.214 29.9194 111.704 30.1198 112.343 30.1198C112.982 30.1198 113.472 29.9194 113.813 29.5184C114.162 29.1101 114.337 28.5829 114.337 27.937V22.8696H115.283V27.8924C115.283 28.5087 115.164 29.0544 114.927 29.5296C114.697 30.0048 114.359 30.3723 113.913 30.6321C113.468 30.892 112.944 31.0219 112.343 31.0219ZM118.36 30.4874L116.066 25.3198H117.09L118.806 29.3848H118.828L120.487 25.3198H121.512L118.059 33.2494H117.09L118.36 30.4874ZM124.579 31.0219C124.037 31.0219 123.551 30.8957 123.12 30.6433C122.689 30.3834 122.352 30.0307 122.107 29.5853C121.869 29.1324 121.75 28.6312 121.75 28.0818C121.75 27.5323 121.869 27.0349 122.107 26.5894C122.352 26.1365 122.689 25.7838 123.12 25.5314C123.551 25.2715 124.037 25.1416 124.579 25.1416C125.121 25.1416 125.607 25.2715 126.038 25.5314C126.476 25.7838 126.814 26.1365 127.051 26.5894C127.296 27.0349 127.419 27.5323 127.419 28.0818C127.419 28.6312 127.296 29.1324 127.051 29.5853C126.814 30.0307 126.476 30.3834 126.038 30.6433C125.607 30.8957 125.121 31.0219 124.579 31.0219ZM124.579 30.1644C124.913 30.1644 125.225 30.079 125.515 29.9082C125.804 29.7375 126.034 29.4962 126.205 29.1843C126.383 28.8651 126.472 28.4975 126.472 28.0818C126.472 27.666 126.383 27.3022 126.205 26.9903C126.034 26.6711 125.804 26.426 125.515 26.2553C125.225 26.0845 124.913 25.9991 124.579 25.9991C124.252 25.9991 123.944 26.0845 123.655 26.2553C123.365 26.426 123.131 26.6711 122.953 26.9903C122.782 27.3022 122.697 27.666 122.697 28.0818C122.697 28.4975 122.782 28.8651 122.953 29.1843C123.131 29.4962 123.365 29.7375 123.655 29.9082C123.944 30.079 124.252 30.1644 124.579 30.1644Z" fill="#212529"/>
</svg>
