<svg width="25" height="25" viewBox="0 0 25 25" fill="none" xmlns="http://www.w3.org/2000/svg">
<path d="M18.8518 17.7434L12.4878 24.1073L6.12383 17.7434C2.60911 14.2286 2.60911 8.53015 6.12383 5.01543C9.63855 1.50071 15.337 1.50071 18.8518 5.01543C22.3665 8.53015 22.3665 14.2286 18.8518 17.7434ZM12.4878 15.3794C14.6969 15.3794 16.4878 13.5885 16.4878 11.3794C16.4878 9.17025 14.6969 7.37939 12.4878 7.37939C10.2787 7.37939 8.48779 9.17025 8.48779 11.3794C8.48779 13.5885 10.2787 15.3794 12.4878 15.3794ZM12.4878 13.3794C11.3832 13.3794 10.4878 12.484 10.4878 11.3794C10.4878 10.2748 11.3832 9.37939 12.4878 9.37939C13.5924 9.37939 14.4878 10.2748 14.4878 11.3794C14.4878 12.484 13.5924 13.3794 12.4878 13.3794Z" fill="white"/>
</svg>
