<svg width="55" height="35" viewBox="0 0 55 35" fill="none" xmlns="http://www.w3.org/2000/svg">
<path d="M4.07304 16.1965V3.64956H0V1.4209H10.4473V3.64956H6.37427V16.1965H4.07304Z" fill="#41A95D"/>
<path d="M32.541 13.6172C32.3509 14.0162 32.1166 14.3911 31.8383 14.7417C31.56 15.0927 31.2343 15.4022 30.8609 15.6704C30.4877 15.9388 30.0565 16.1486 29.5677 16.2998C29.079 16.4512 28.5428 16.5268 27.9589 16.5268C27.1987 16.5268 26.4995 16.3926 25.8615 16.1244C25.2233 15.8561 24.6735 15.4812 24.212 14.9997C23.7503 14.5182 23.3905 13.9472 23.1326 13.2868C22.8747 12.6265 22.7457 11.9109 22.7457 11.1405C22.7457 10.3701 22.8746 9.65472 23.1326 8.99428C23.3906 8.33398 23.7503 7.763 24.212 7.28135C24.6736 6.79983 25.2234 6.42494 25.8615 6.15684C26.4995 5.88845 27.1987 5.75439 27.9589 5.75439C28.5428 5.75439 29.0757 5.83001 29.5576 5.98138C30.0396 6.1326 30.4673 6.34241 30.8407 6.6108C31.2139 6.87904 31.5364 7.18856 31.808 7.53949C32.0795 7.89041 32.2967 8.25837 32.4597 8.64364L30.3825 9.53091C30.1517 9.00813 29.8327 8.60236 29.4254 8.31348C29.0181 8.02446 28.5022 7.88016 27.8778 7.88016C27.4976 7.88016 27.1343 7.9591 26.7882 8.11739C26.4419 8.27554 26.1364 8.49587 25.8717 8.77783C25.6069 9.05992 25.3965 9.40032 25.2405 9.7993C25.0843 10.1983 25.0062 10.6454 25.0062 11.1407C25.0062 11.636 25.0844 12.0832 25.2405 12.4822C25.3965 12.8812 25.6069 13.2217 25.8717 13.5037C26.1364 13.7858 26.4419 14.0058 26.7882 14.1641C27.1343 14.3223 27.4976 14.4015 27.8778 14.4015C28.5022 14.4015 29.0351 14.2534 29.4764 13.9576C29.9176 13.662 30.2604 13.2526 30.5047 12.7298L32.5412 13.6172H32.541Z" fill="#467FE9"/>
<path d="M33.2872 1.4209H35.5477V5.81645L35.4256 7.4467H35.5477C35.8329 6.96519 36.2536 6.56275 36.8103 6.23952C37.367 5.91616 37.9847 5.75454 38.6636 5.75454C39.3153 5.75454 39.8788 5.85426 40.354 6.05382C40.8291 6.25324 41.2229 6.53879 41.5353 6.91021C41.8475 7.28149 42.0782 7.72534 42.2276 8.2412C42.377 8.75706 42.4516 9.32471 42.4516 9.94375V16.1967H40.1911V10.2534C40.1911 9.41404 39.9909 8.80871 39.5903 8.43743C39.1897 8.06588 38.6841 7.8803 38.0731 7.8803C37.6794 7.8803 37.3298 7.96617 37.0244 8.13817C36.7189 8.3103 36.4542 8.54061 36.2301 8.82949C36.0061 9.11851 35.8364 9.44866 35.721 9.82008C35.6057 10.1916 35.5479 10.5769 35.5479 10.9759V16.1968H33.2874V1.42104L33.2872 1.4209Z" fill="#2C2E31"/>
<path d="M0.463013 16.3735H2.76411V29.7124H0.463013V16.3735Z" fill="#2C2E31"/>
<path d="M8.9331 34.5002C8.24064 34.5002 7.62635 34.4075 7.09009 34.2217C6.55383 34.036 6.08877 33.7987 5.69519 33.5096C5.30147 33.2208 4.97895 32.8975 4.7279 32.5398C4.47672 32.1821 4.29004 31.8381 4.16787 31.508L6.32643 30.6207C6.51652 31.1572 6.84232 31.594 7.30396 31.931C7.7656 32.2683 8.30869 32.4368 8.9331 32.4368C9.86991 32.4368 10.5997 32.1582 11.1223 31.6044C11.645 31.0507 11.9063 30.2767 11.9063 29.2793V28.4537H11.7841C11.4718 28.9078 11.0408 29.2861 10.491 29.5887C9.94124 29.8913 9.29976 30.0428 8.56657 30.0428C7.9557 30.0428 7.36505 29.9121 6.7949 29.6473C6.22461 29.3823 5.71883 29.0144 5.27769 28.5433C4.83641 28.0687 4.48683 27.501 4.22882 26.8338C3.97094 26.1667 3.8418 25.4374 3.8418 24.6463C3.8418 23.8554 3.9708 23.1296 4.22882 22.4691C4.48683 21.8088 4.83641 21.2448 5.27769 20.77C5.71883 20.2989 6.22448 19.9308 6.7949 19.666C7.36505 19.4011 7.95556 19.2705 8.56657 19.2705C9.29976 19.2705 9.94124 19.4217 10.491 19.7245C11.0408 20.0271 11.472 20.4054 11.7841 20.8595H11.9063V19.6005H14.0855V29.1347C14.0855 30.0015 13.9531 30.7685 13.6884 31.4357C13.4235 32.103 13.0639 32.6635 12.609 33.1176C12.1542 33.5716 11.6112 33.9154 10.98 34.1495C10.3486 34.3834 9.66642 34.5002 8.93323 34.5002H8.9331ZM9.01455 27.9172C9.38121 27.9172 9.7409 27.8485 10.0939 27.7074C10.4469 27.5664 10.7557 27.3564 11.0205 27.0779C11.2852 26.7993 11.499 26.4553 11.6619 26.0495C11.8247 25.6471 11.9062 25.1758 11.9062 24.6461C11.9062 24.1303 11.8247 23.6625 11.6619 23.2532C11.499 22.8404 11.2852 22.4967 11.0205 22.2248C10.7556 21.9531 10.4468 21.7433 10.0939 21.5954C9.74077 21.4475 9.38107 21.3754 9.01455 21.3754C8.63436 21.3754 8.27125 21.4476 7.92495 21.5954C7.57879 21.7433 7.26994 21.9566 6.99839 22.2351C6.72685 22.5137 6.50969 22.8577 6.34665 23.2636C6.18375 23.6695 6.1023 24.1304 6.1023 24.6461C6.1023 25.1621 6.18375 25.623 6.34665 26.0288C6.50969 26.4347 6.72685 26.7787 6.99839 27.0573C7.27007 27.3359 7.57893 27.5492 7.92495 27.697C8.27125 27.8449 8.63436 27.917 9.01455 27.917V27.9172Z" fill="#467FE9"/>
<path d="M17.7353 20.9627H17.8574C18.156 20.4812 18.5804 20.0787 19.1302 19.7555C19.6801 19.432 20.3012 19.2705 20.9935 19.2705C22.2562 19.2705 23.1997 19.6522 23.8243 20.4158C24.4487 21.1793 24.761 22.1941 24.761 23.4598V29.7128H22.5005V23.7694C22.5005 22.8889 22.3003 22.2732 21.8997 21.9225C21.4992 21.5715 20.9732 21.3961 20.3214 21.3961C19.9277 21.3961 19.5816 21.4787 19.2828 21.6439C18.9842 21.8088 18.7262 22.0325 18.5089 22.3146C18.2918 22.5967 18.1287 22.9199 18.0202 23.2845C17.9116 23.6492 17.8573 24.0308 17.8573 24.4299V29.7129C16.5638 29.7129 16.8903 29.7129 15.5968 29.7129V19.6011C16.8496 19.6011 16.4824 19.6011 17.735 19.6011V20.9631L17.7353 20.9627Z" fill="#E1493C"/>
<path d="M26.1351 29.712V22.8896H28.3956V29.712H26.1351Z" fill="#F9C216"/>
<path d="M27.2758 21.7751C26.8413 21.7751 26.4781 21.6239 26.1862 21.3212C25.8944 21.0186 25.7483 20.6538 25.7483 20.2274C25.7483 19.801 25.8942 19.4364 26.1862 19.1338C26.4779 18.8311 26.8413 18.6797 27.2758 18.6797C27.6965 18.6797 28.0529 18.8311 28.3447 19.1338C28.6368 19.4364 28.7827 19.801 28.7827 20.2274C28.7827 20.6539 28.6368 21.0186 28.3447 21.3212C28.0529 21.6239 27.6964 21.7751 27.2758 21.7751Z" fill="#F9C216"/>
<path d="M31.4143 21.6228H30.9772H29.6628V19.6005H30.9772H31.4143V17.8833H32.7287H33.6748H34.9892V19.6005H36.1389H37.4533V21.6228H36.1389H34.9892V26.242C34.9892 26.4964 35.0164 26.7305 35.0707 26.9438C35.1249 27.1534 35.2064 27.3323 35.3149 27.4733C35.5458 27.7416 35.8376 27.8758 36.1906 27.8758C36.408 27.8758 36.5776 27.8586 36.6998 27.8241C36.822 27.7898 36.951 27.7382 37.0867 27.6694L37.6337 29.2671C36.0051 30.3536 34.3428 30.2748 33.247 29.8121C31.9499 29.2644 31.4143 28.1091 31.4143 26.7166V21.623V21.6228Z" fill="#41A95D"/>
<path d="M47.9513 27.2978C47.5304 28.082 46.9331 28.7354 46.1593 29.2582C45.3854 29.7811 44.435 30.0424 43.3081 30.0424C42.5614 30.0424 41.8724 29.9082 41.2411 29.64C40.6098 29.3717 40.0632 28.9969 39.6017 28.5155C39.1401 28.034 38.7803 27.4663 38.5224 26.8129C38.2644 26.1594 38.1354 25.4405 38.1354 24.6563C38.1354 23.927 38.2576 23.2358 38.502 22.5823C38.7465 21.9288 39.0893 21.358 39.5305 20.8694C39.9717 20.381 40.5047 19.9924 41.1292 19.7033C41.7536 19.4146 42.4459 19.27 43.2063 19.27C43.9802 19.27 44.6691 19.4006 45.2734 19.6621C45.8775 19.9234 46.3901 20.288 46.811 20.7558C47.2318 21.2236 47.5543 21.7877 47.7783 22.4481C48.0023 23.1084 48.1144 23.8308 48.1144 24.6149C48.1144 24.6837 48.1144 24.7456 48.1144 24.8006C48.1008 24.8694 48.094 24.9312 48.094 24.9863C48.0805 25.0413 48.0736 25.0963 48.0736 25.1514H40.396C40.4367 25.6329 40.5522 26.0525 40.7423 26.4102C40.9324 26.7679 41.1665 27.0637 41.4449 27.2976C41.7233 27.5314 42.032 27.7036 42.3715 27.8135C42.7109 27.9236 43.0434 27.9787 43.3694 27.9787C44.0211 27.9787 44.5573 27.8204 44.9781 27.5041C45.399 27.1877 45.7452 26.7956 46.0167 26.3278L47.9513 27.2978ZM45.8538 23.3975C45.8267 23.1911 45.7621 22.9607 45.6603 22.7061C45.5585 22.4515 45.4025 22.2177 45.192 22.0044C44.9814 21.791 44.71 21.6089 44.3774 21.4574C44.0446 21.3062 43.6408 21.2304 43.1656 21.2304C42.5139 21.2304 41.954 21.4265 41.4855 21.8187C41.0171 22.2108 40.7015 22.737 40.5384 23.3975H45.8537H45.8538Z" fill="#E1493C"/>
<path d="M12.6713 16.5268C11.9244 16.5268 11.2354 16.3925 10.6042 16.1245C9.33006 15.5832 8.39708 14.5938 7.88542 13.2972C7.62768 12.6439 7.49854 11.9249 7.49854 11.1405C7.49854 10.4114 7.62085 9.7198 7.86506 9.06657C8.35185 7.76424 9.23823 6.76783 10.4921 6.18785C11.1165 5.89897 11.8091 5.75439 12.5692 5.75439H17.01C17.7839 5.75439 18.4728 5.88513 19.077 6.14645C19.6812 6.40791 20.1937 6.77226 20.6147 7.24007C21.0355 7.70788 21.3579 8.27193 21.582 8.93237C21.806 9.59281 21.918 10.3152 21.918 11.0993C21.918 11.168 21.918 11.2299 21.918 11.285C21.9044 11.3538 21.8977 11.4157 21.8977 11.4707C21.8841 11.5258 21.8772 11.5808 21.8772 11.6358H14.1997C14.2404 12.1173 14.3559 12.5369 14.546 12.8946C14.7361 13.2523 14.9702 13.5481 15.2486 13.7819C15.527 14.0159 15.8358 14.1878 16.1751 14.2979C16.5146 14.4078 16.8471 14.463 17.173 14.463C17.8246 14.463 18.3608 14.3047 18.7817 13.9882C19.2026 13.6718 19.5487 13.2796 19.8203 12.8121L21.755 13.7819C21.3341 14.5661 20.7367 15.2196 19.9628 15.7424C19.1889 16.2652 18.2386 16.5267 17.1118 16.5267H12.6712L12.6713 16.5268ZM19.6575 9.88183C19.6303 9.67535 19.5657 9.44505 19.464 9.19051C19.3622 8.93611 19.206 8.70207 18.9955 8.4888C18.7851 8.27539 18.5137 8.09328 18.1809 7.94206C17.8484 7.79069 17.4444 7.71494 16.9693 7.71494C16.3175 7.71494 15.7575 7.91104 15.2892 8.30309C14.8208 8.69529 14.5051 9.22139 14.3421 9.88183H19.6574H19.6575Z" fill="#E1493C"/>
<path d="M29.3042 24.0659V28.4345H27.4872V24.0659H29.3042Z" fill="#2C2E31"/>
<path fill-rule="evenodd" clip-rule="evenodd" d="M27.9589 4.83377C28.6288 4.83377 29.2507 4.92393 29.8239 5.10382C30.1111 5.19398 30.3815 5.30144 30.6337 5.4251C30.8922 5.55182 31.1368 5.69793 31.3657 5.86259C31.8081 6.18055 32.1936 6.55169 32.521 6.97463L31.0941 8.10412C30.879 7.82618 30.6191 7.57746 30.3149 7.35907C30.1714 7.2559 30.0143 7.16227 29.8457 7.07946C29.6711 6.99374 29.4857 6.91993 29.2913 6.85886C28.901 6.73657 28.4563 6.67494 27.9587 6.67494V4.8335L27.9589 4.83377ZM25.9146 11.1407C25.9146 11.3365 25.9295 11.5196 25.9592 11.689C25.987 11.8489 26.0292 12.0011 26.0851 12.144L26.1071 12.2066C26.1567 12.3242 26.2164 12.4394 26.2855 12.5512L26.3025 12.5804C26.3701 12.6851 26.4455 12.782 26.5284 12.8704C26.6208 12.969 26.7205 13.0568 26.8251 13.1321C26.9268 13.2053 27.0391 13.2703 27.1609 13.3259C27.2756 13.3781 27.392 13.4177 27.508 13.4428C27.6232 13.4678 27.7468 13.4806 27.8776 13.4806V15.3222C27.6283 15.3222 27.3793 15.2949 27.1321 15.2409C26.8857 15.1874 26.6467 15.1072 26.4156 15.0018C26.1918 14.8995 25.9774 14.7746 25.7743 14.6285C25.5737 14.4842 25.3868 14.3195 25.215 14.1366C25.0528 13.9639 24.906 13.7739 24.7749 13.5675L24.745 13.5221C24.63 13.3352 24.5251 13.1277 24.4319 12.901L24.3958 12.82C24.2959 12.5645 24.2202 12.2924 24.1705 12.0053C24.1221 11.728 24.0977 11.4394 24.0977 11.1406H25.9148L25.9146 11.1407Z" fill="#2C2E31"/>
<path d="M4.98161 5.04297V14.4012H3.16443V5.04297H4.98161Z" fill="#2C2E31"/>
<path d="M9.50606 2.34159H6.41711V0.5H9.50606V2.34159Z" fill="#2C2E31"/>
<path fill-rule="evenodd" clip-rule="evenodd" d="M51.1747 4.44699C51.121 4.32415 51.044 4.21351 50.9441 4.11573C50.8439 4.01782 50.7208 3.93806 50.5742 3.87643C50.4274 3.81508 50.2578 3.78406 50.0648 3.78406C49.8788 3.78406 49.7165 3.81508 49.5768 3.87643C49.4376 3.93806 49.3179 4.01769 49.2177 4.11573C49.1176 4.21351 49.0352 4.31848 48.971 4.43079C48.9068 4.54324 48.8603 4.65347 48.8317 4.76219L48.1196 4.46901L47.7488 4.3164C47.7987 4.14274 47.8847 3.95786 48.006 3.76218C48.041 3.70609 48.0789 3.65125 48.1196 3.59752C48.2209 3.46388 48.3405 3.33786 48.4781 3.21904C48.671 3.0523 48.9013 2.91464 49.1696 2.80593C49.4376 2.69722 49.7433 2.64279 50.0864 2.64279C50.451 2.64279 50.7797 2.70096 51.073 2.81687C51.3658 2.93292 51.6162 3.08831 51.8235 3.28412C52.0308 3.47981 52.1899 3.70817 52.3006 3.96894C52.4114 4.22957 52.4667 4.50848 52.4667 4.8054C52.4667 5.03722 52.4328 5.26171 52.3651 5.47941C52.2971 5.69655 52.2077 5.90483 52.0968 6.10412C51.9862 6.3034 51.8611 6.4898 51.7216 6.66374C51.5823 6.83768 51.4409 6.99708 51.2979 7.14179C50.9914 7.45283 49.9278 8.50062 49.3679 9.1414H50.2873L49.2197 10.2498H48.1195H47.781V9.10885C47.8914 8.99889 48.0044 8.88672 48.1195 8.77288C49.0202 7.88089 50.0406 6.87784 50.8152 5.92506C50.9154 5.8018 50.9975 5.68215 51.0619 5.56651C51.1264 5.45046 51.1747 5.33441 51.2068 5.21878C51.2389 5.10273 51.2549 4.97241 51.2549 4.82769C51.2549 4.69737 51.2281 4.57052 51.1747 4.44727V4.44699ZM48.1195 1.32178H47.5712C46.8543 1.32178 46.2676 1.9163 46.2676 2.64279V14.7962C46.2676 15.5227 46.8543 16.1172 47.5712 16.1172H48.1195H53.6965C54.4134 16.1172 55.0001 15.5227 55.0001 14.7962V2.64279C55.0001 1.9163 54.4134 1.32178 53.6965 1.32178H48.1195ZM51.9409 8.15745H53.5191L51.3567 10.3955L50.3371 11.4238L50.0529 11.7113L50.0639 11.7549H52.4255V10.1256L53.5192 9.01731V14.7961H52.4255V12.8632H48.4768V11.7224C48.5781 11.6213 48.6779 11.5217 48.7754 11.4238L48.7789 11.4203L50.0068 10.1681L51.9411 8.15745H51.9409Z" fill="#2C2E31"/>
</svg>
