<svg width="121" height="74" viewBox="0 0 121 74" fill="none" xmlns="http://www.w3.org/2000/svg">
<path d="M8.96069 34.1627V6.85452H0V2.00391H22.9841V6.85452H14.0234V34.1627H8.96069Z" fill="#41A95D"/>
<path d="M71.5902 28.5488C71.172 29.4171 70.6564 30.233 70.0442 30.9962C69.4318 31.76 68.7153 32.4336 67.8939 33.0175C67.0729 33.6016 66.1243 34.0582 65.0489 34.3874C63.9737 34.7168 62.794 34.8814 61.5096 34.8814C59.837 34.8814 58.2989 34.5893 56.8951 34.0055C55.4911 33.4217 54.2816 32.6057 53.2662 31.5577C52.2506 30.5097 51.459 29.267 50.8917 27.8296C50.3243 26.3925 50.0405 24.8351 50.0405 23.1583C50.0405 21.4816 50.324 19.9245 50.8917 18.4871C51.4593 17.0499 52.2506 15.8072 53.2662 14.7589C54.2819 13.7109 55.4914 12.895 56.8951 12.3114C58.2989 11.7273 59.837 11.4355 61.5096 11.4355C62.794 11.4355 63.9665 11.6001 65.0266 11.9296C66.087 12.2587 67.0281 12.7153 67.8495 13.2995C68.6705 13.8833 69.3801 14.557 69.9775 15.3207C70.5749 16.0845 71.0526 16.8854 71.4113 17.7239L66.8414 19.655C66.3336 18.5172 65.6318 17.6341 64.7359 17.0053C63.8396 16.3763 62.7047 16.0622 61.331 16.0622C60.4945 16.0622 59.6954 16.234 58.9339 16.5785C58.172 16.9227 57.5 17.4023 56.9177 18.016C56.335 18.6299 55.8723 19.3708 55.529 20.2392C55.1853 21.1075 55.0136 22.0808 55.0136 23.1586C55.0136 24.2368 55.1856 25.21 55.529 26.0784C55.8723 26.9468 56.335 27.6879 56.9177 28.3016C57.5 28.9156 58.172 29.3945 58.9339 29.739C59.6954 30.0832 60.4945 30.2557 61.331 30.2557C62.7047 30.2557 63.8772 29.9334 64.848 29.2896C65.8185 28.6461 66.5729 27.7551 67.1102 26.6173L71.5905 28.5488H71.5902Z" fill="#467FE9"/>
<path d="M73.2319 2.00391H78.2051V11.5707L77.9363 15.1189H78.2051C78.8325 14.0709 79.7579 13.195 80.9828 12.4915C82.2074 11.7877 83.5663 11.436 85.06 11.436C86.4938 11.436 87.7334 11.653 88.7788 12.0873C89.8241 12.5213 90.6903 13.1428 91.3776 13.9512C92.0646 14.7593 92.5721 15.7253 92.9007 16.8481C93.2293 17.9708 93.3935 19.2063 93.3935 20.5536V34.1629H88.4204V21.2276C88.4204 19.4007 87.9799 18.0833 87.0987 17.2752C86.2175 16.4665 85.1051 16.0626 83.7608 16.0626C82.8947 16.0626 82.1256 16.2495 81.4536 16.6238C80.7817 16.9985 80.1993 17.4997 79.7062 18.1285C79.2134 18.7575 78.84 19.4761 78.5863 20.2845C78.3325 21.0932 78.2053 21.9317 78.2053 22.8001V34.1632H73.2323V2.00421L73.2319 2.00391Z" fill="#FFFFF1"/>
<path d="M1.01868 34.5479H6.08111V63.5794H1.01868V34.5479Z" fill="#FFFFF1"/>
<path d="M19.6529 73.9998C18.1295 73.9998 16.7781 73.7979 15.5983 73.3937C14.4185 72.9895 13.3954 72.4729 12.5295 71.8438C11.6633 71.2151 10.9538 70.5116 10.4015 69.7331C9.84886 68.9545 9.43818 68.2058 9.1694 67.4873L13.9182 65.5561C14.3364 66.7238 15.0532 67.6744 16.0688 68.4081C17.0844 69.142 18.2792 69.5088 19.6529 69.5088C21.7139 69.5088 23.3194 68.9024 24.4691 67.697C25.6191 66.492 26.1939 64.8074 26.1939 62.6367V60.8396H25.9251C25.2381 61.828 24.2899 62.6514 23.0803 63.31C21.8708 63.9686 20.4596 64.2983 18.8466 64.2983C17.5026 64.2983 16.2032 64.0138 14.9489 63.4375C13.6942 62.8609 12.5815 62.0601 11.611 61.0347C10.6402 60.0017 9.87112 58.7662 9.30349 57.314C8.73615 55.8621 8.45203 54.2749 8.45203 52.5529C8.45203 50.8316 8.73585 49.2519 9.30349 47.8145C9.87112 46.3773 10.6402 45.1497 11.611 44.1165C12.5815 43.0911 13.6939 42.2899 14.9489 41.7136C16.2032 41.137 17.5023 40.8528 18.8466 40.8528C20.4596 40.8528 21.8708 41.1819 23.0803 41.8408C24.2899 42.4994 25.2384 43.3228 25.9251 44.3112H26.1939V41.571H30.9882V62.322C30.9882 64.2085 30.6968 65.8777 30.1144 67.3299C29.5318 68.7824 28.7408 70.0022 27.7399 70.9906C26.7393 71.9786 25.5448 72.727 24.1561 73.2364C22.7671 73.7455 21.2662 73.9998 19.6532 73.9998H19.6529ZM19.8321 59.672C20.6387 59.672 21.4301 59.5225 22.2067 59.2153C22.9832 58.9085 23.6627 58.4516 24.2451 57.8454C24.8274 57.239 25.298 56.4903 25.6564 55.6071C26.0144 54.7312 26.1936 53.7055 26.1936 52.5526C26.1936 51.4299 26.0144 50.4117 25.6564 49.5211C25.298 48.6225 24.8274 47.8745 24.2451 47.2828C23.6624 46.6914 22.9829 46.2348 22.2067 45.9129C21.4298 45.591 20.6384 45.4339 19.8321 45.4339C18.9957 45.4339 18.1968 45.5913 17.435 45.9129C16.6734 46.2348 15.9939 46.6989 15.3965 47.3051C14.7991 47.9115 14.3214 48.6602 13.9627 49.5437C13.6043 50.4271 13.4251 51.4302 13.4251 52.5526C13.4251 53.6757 13.6043 54.6788 13.9627 55.5619C14.3214 56.4454 14.7991 57.1941 15.3965 57.8005C15.9942 58.4069 16.6737 58.8711 17.435 59.1927C18.1968 59.5146 18.9957 59.6717 19.8321 59.6717V59.672Z" fill="#467FE9"/>
<path d="M39.0178 44.5357H39.2865C39.9435 43.4877 40.877 42.6118 42.0865 41.9083C43.2963 41.2042 44.6628 40.8528 46.1859 40.8528C48.9637 40.8528 51.0394 41.6835 52.4137 43.3454C53.7874 45.0071 54.4744 47.2159 54.4744 49.9708V63.5801H49.5012V50.6444C49.5012 48.728 49.0608 47.388 48.1796 46.6248C47.2984 45.8607 46.1411 45.4791 44.7073 45.4791C43.8411 45.4791 43.0796 45.6588 42.4223 46.0184C41.7654 46.3773 41.1978 46.8641 40.7197 47.4781C40.242 48.0921 39.8833 48.7956 39.6446 49.5892C39.4056 50.3828 39.2862 51.2135 39.2862 52.0822V63.5804C36.4405 63.5804 37.1588 63.5804 34.3131 63.5804V41.5723C37.0692 41.5723 36.2613 41.5723 39.0171 41.5723V44.5366L39.0178 44.5357Z" fill="#E1493C"/>
<path d="M57.4974 63.5797V48.731H62.4706V63.5797H57.4974Z" fill="#F9C216"/>
<path d="M60.0068 46.3045C59.051 46.3045 58.2519 45.9754 57.6097 45.3165C56.9678 44.6579 56.6464 43.864 56.6464 42.9359C56.6464 42.0079 56.9675 41.2143 57.6097 40.5557C58.2516 39.8968 59.051 39.5674 60.0068 39.5674C60.9325 39.5674 61.7166 39.8968 62.3585 40.5557C63.001 41.2143 63.3221 42.0079 63.3221 42.9359C63.3221 43.8643 63.001 44.6579 62.3585 45.3165C61.7166 45.9754 60.9322 46.3045 60.0068 46.3045Z" fill="#F9C216"/>
<path d="M69.1115 45.973H68.15H65.2583V41.5715H68.15H69.1115V37.834H72.0032H74.0846H76.9763V41.5715H79.5057H82.3974V45.973H79.5057H76.9763V56.0265C76.9763 56.5802 77.0361 57.0896 77.1555 57.5538C77.2748 58.0101 77.454 58.3996 77.6928 58.7064C78.2009 59.2902 78.8428 59.5823 79.6193 59.5823C80.0977 59.5823 80.4708 59.5449 80.7396 59.4699C81.0084 59.3951 81.2922 59.283 81.5907 59.1332L82.7942 62.6106C79.2113 64.9751 75.5542 64.8036 73.1436 63.7966C70.2898 62.6045 69.1115 60.0902 69.1115 57.0595V45.9733V45.973Z" fill="#41A95D"/>
<path d="M105.493 58.3247C104.567 60.0316 103.253 61.4537 101.55 62.5915C99.8478 63.7296 97.7571 64.2984 95.2779 64.2984C93.6351 64.2984 92.1192 64.0063 90.7305 63.4225C89.3415 62.8387 88.1391 62.0227 87.1238 60.975C86.1082 59.927 85.3166 58.6916 84.7493 57.2695C84.1816 55.8471 83.8978 54.2825 83.8978 52.5756C83.8978 50.9884 84.1666 49.484 84.7045 48.0617C85.2423 46.6393 85.9964 45.3969 86.9672 44.3335C87.9377 43.2705 89.1102 42.4247 90.4842 41.7957C91.8579 41.1672 93.381 40.8525 95.0539 40.8525C96.7565 40.8525 98.2721 41.1368 99.6016 41.7058C100.93 42.2746 102.058 43.0682 102.984 44.0864C103.91 45.1045 104.619 46.3322 105.112 47.7696C105.605 49.2068 105.852 50.7789 105.852 52.4855C105.852 52.6353 105.852 52.77 105.852 52.8897C105.822 53.0395 105.807 53.1739 105.807 53.2939C105.777 53.4135 105.762 53.5332 105.762 53.6532H88.8712C88.9608 54.7012 89.2149 55.6144 89.6331 56.393C90.0513 57.1715 90.5663 57.8154 91.1788 58.3244C91.7912 58.8332 92.4704 59.2079 93.2172 59.4472C93.964 59.6868 94.6955 59.8068 95.4126 59.8068C96.8464 59.8068 98.0262 59.4623 98.9519 58.7738C99.8779 58.0851 100.639 57.2318 101.237 56.2136L105.493 58.3247ZM100.878 49.8358C100.819 49.3867 100.677 48.8851 100.453 48.3312C100.229 47.7769 99.8854 47.2681 99.4224 46.8039C98.9591 46.3394 98.362 45.9431 97.6302 45.6133C96.8981 45.2842 96.0096 45.1193 94.9643 45.1193C93.5305 45.1193 92.2987 45.5461 91.268 46.3997C90.2377 47.253 89.5432 48.3984 89.1845 49.8358H100.878H100.878Z" fill="#E1493C"/>
<path d="M27.877 34.8816C26.2339 34.8816 24.718 34.5893 23.3293 34.006C20.5263 32.8278 18.4738 30.6745 17.3481 27.8524C16.7811 26.4307 16.4969 24.8657 16.4969 23.1586C16.4969 21.5716 16.766 20.0664 17.3033 18.6446C18.3742 15.8102 20.3243 13.6415 23.0828 12.3792C24.4565 11.7505 25.9802 11.4358 27.6524 11.4358H37.4222C39.1248 11.4358 40.6404 11.7203 41.9696 12.2891C43.2988 12.8582 44.4262 13.6512 45.3525 14.6693C46.2782 15.6875 46.9875 16.9151 47.4805 18.3526C47.9733 19.79 48.2199 21.3621 48.2199 23.0687C48.2199 23.2182 48.2199 23.353 48.2199 23.4729C48.1898 23.6227 48.175 23.7575 48.175 23.8771C48.1453 23.9971 48.1299 24.1167 48.1299 24.2364H31.2395C31.3291 25.2844 31.5832 26.1977 32.0014 26.9762C32.4196 27.7548 32.9346 28.3986 33.547 28.9074C34.1595 29.4167 34.839 29.7908 35.5855 30.0304C36.3323 30.2698 37.0638 30.3897 37.7808 30.3897C39.2144 30.3897 40.3938 30.0452 41.3198 29.3565C42.2459 28.6678 43.0074 27.8142 43.6048 26.7966L47.8612 28.9074C46.9352 30.6143 45.621 32.0366 43.9184 33.1744C42.2158 34.3123 40.1251 34.8813 37.6462 34.8813H27.8767L27.877 34.8816ZM43.2467 20.419C43.1869 19.9696 43.0447 19.4684 42.821 18.9144C42.597 18.3607 42.2534 17.8513 41.7904 17.3871C41.3274 16.9227 40.7303 16.5263 39.9982 16.1972C39.2667 15.8677 38.3779 15.7029 37.3326 15.7029C35.8987 15.7029 34.6667 16.1297 33.6363 16.983C32.606 17.8366 31.9115 18.9816 31.5528 20.419H43.2464H43.2467Z" fill="#E1493C"/>
<path d="M64.4693 51.2903V60.7983H60.4718V51.2903H64.4693Z" fill="#FFFFF1"/>
<path fill-rule="evenodd" clip-rule="evenodd" d="M61.5096 9.432C62.9834 9.432 64.3516 9.62822 65.6126 10.0198C66.2446 10.216 66.8393 10.4499 67.3943 10.719C67.9628 10.9948 68.501 11.3128 69.0046 11.6712C69.9778 12.3632 70.8259 13.171 71.5463 14.0915L68.4072 16.5498C67.9339 15.9449 67.3621 15.4036 66.6929 14.9282C66.3772 14.7037 66.0314 14.4999 65.6607 14.3197C65.2765 14.1331 64.8685 13.9725 64.4409 13.8395C63.5823 13.5734 62.604 13.4392 61.5093 13.4392V9.4314L61.5096 9.432ZM57.0121 23.1589C57.0121 23.585 57.0449 23.9835 57.1104 24.3521C57.1714 24.7003 57.2643 25.0315 57.3873 25.3426L57.4357 25.4788C57.5448 25.7347 57.6762 25.9855 57.8281 26.2287L57.8656 26.2923C58.0142 26.5202 58.1801 26.7312 58.3626 26.9235C58.5659 27.1381 58.785 27.3292 59.0153 27.4931C59.239 27.6523 59.4862 27.794 59.7541 27.9148C60.0063 28.0284 60.2625 28.1146 60.5177 28.1692C60.7712 28.2238 61.043 28.2515 61.3307 28.2515V32.2597C60.7823 32.2597 60.2345 32.2003 59.6906 32.0827C59.1485 31.9664 58.6227 31.7919 58.1143 31.5625C57.6221 31.3397 57.1504 31.0679 56.7036 30.7499C56.2623 30.4358 55.851 30.0774 55.473 29.6793C55.1162 29.3034 54.7932 28.8899 54.5049 28.4408L54.4391 28.3419C54.1859 27.935 53.9553 27.4835 53.7503 26.9901L53.6709 26.8138C53.4512 26.2577 53.2846 25.6654 53.1751 25.0406C53.0687 24.4371 53.0149 23.809 53.0149 23.1585H57.0127L57.0121 23.1589Z" fill="#FFFFF1"/>
<path d="M10.9596 9.88721V30.255H6.96179V9.88721H10.9596Z" fill="#FFFFF1"/>
<path d="M20.9132 4.00816H14.1176V0H20.9132V4.00816Z" fill="#FFFFF1"/>
<path fill-rule="evenodd" clip-rule="evenodd" d="M112.584 8.59027C112.466 8.32292 112.297 8.08209 112.077 7.86929C111.857 7.6562 111.586 7.48258 111.263 7.34846C110.94 7.21493 110.567 7.14742 110.143 7.14742C109.733 7.14742 109.376 7.21493 109.069 7.34846C108.763 7.48258 108.499 7.6559 108.279 7.86929C108.059 8.08209 107.877 8.31056 107.736 8.555C107.595 8.79975 107.493 9.03967 107.43 9.27628L105.863 8.63819L105.047 8.30604C105.157 7.92807 105.346 7.52569 105.613 7.09979C105.69 6.97772 105.773 6.85837 105.863 6.74142C106.086 6.45056 106.349 6.17627 106.652 5.91766C107.076 5.55476 107.583 5.25516 108.173 5.01855C108.763 4.78194 109.435 4.66349 110.19 4.66349C110.992 4.66349 111.715 4.79008 112.36 5.04236C113.005 5.29494 113.556 5.63313 114.012 6.05932C114.468 6.48521 114.818 6.98224 115.061 7.5498C115.305 8.11705 115.427 8.7241 115.427 9.37032C115.427 9.87488 115.352 10.3635 115.203 10.8373C115.053 11.3099 114.857 11.7632 114.613 12.1969C114.369 12.6307 114.094 13.0364 113.787 13.415C113.481 13.7935 113.17 14.1405 112.855 14.4554C112.181 15.1324 109.841 17.4129 108.609 18.8075H110.632L108.283 21.22H105.863H105.118V18.7367C105.361 18.4973 105.61 18.2532 105.863 18.0054C107.844 16.064 110.089 13.8809 111.793 11.8072C112.014 11.539 112.194 11.2786 112.336 11.0269C112.478 10.7743 112.584 10.5217 112.655 10.27C112.725 10.0175 112.761 9.73382 112.761 9.41885C112.761 9.13522 112.702 8.85913 112.584 8.59087V8.59027ZM105.863 1.78833H104.657C103.079 1.78833 101.789 3.08228 101.789 4.66349V31.115C101.789 32.6962 103.079 33.9902 104.657 33.9902H105.863H118.132C119.709 33.9902 121 32.6962 121 31.115V4.66349C121 3.08228 119.709 1.78833 118.132 1.78833H105.863ZM114.27 16.666H117.742L112.985 21.5371L110.741 23.7751L110.116 24.4008L110.14 24.4957H115.336V20.9496L117.742 18.5374V31.1147H115.336V26.9079H106.649V24.4249C106.872 24.2049 107.091 23.9882 107.306 23.7751L107.313 23.7675L110.015 21.0422L114.27 16.666H114.27Z" fill="#FFFFF1"/>
</svg>
