<svg width="113" height="113" viewBox="0 0 113 113" fill="none" xmlns="http://www.w3.org/2000/svg">
<rect width="113" height="113" rx="56.5" fill="#CFE0FC"/>
<rect x="24" y="25" width="64" height="64" rx="32" fill="#90B7F9"/>
<path d="M57.3334 52C57.3334 52.5523 57.7811 53 58.3334 53H66.1315C66.9302 53 67.4066 53.8901 66.9636 54.5547L56.4988 70.2519C55.9499 71.0752 54.6667 70.6866 54.6667 69.6972V62C54.6667 61.4477 54.219 61 53.6667 61H47.0996C46.3223 61 45.8422 60.152 46.2421 59.4855L55.4759 44.0958C55.9977 43.2261 57.3334 43.5961 57.3334 44.6103V52ZM55.6667 55.6667C55.1144 55.6667 54.6667 55.219 54.6667 54.6667V54.2378C54.6667 53.2236 53.331 52.8536 52.8092 53.7233L50.9519 56.8188C50.552 57.4854 51.0321 58.3333 51.8094 58.3333H56.3334C56.8857 58.3333 57.3334 58.781 57.3334 59.3333V60.8898C57.3334 61.8792 58.6166 62.2677 59.1654 61.4445L61.9809 57.2214C62.4239 56.5568 61.9475 55.6667 61.1488 55.6667H55.6667Z" fill="white"/>
</svg>
