<svg width="19" height="19" viewBox="0 0 19 19" fill="none" xmlns="http://www.w3.org/2000/svg">
<path d="M7.78342 1.59937C8.19666 -0.230072 10.8033 -0.230072 11.2166 1.59937C11.4844 2.78503 12.845 3.34861 13.8728 2.6996C15.4586 1.6982 17.3018 3.5414 16.3004 5.12721C15.6514 6.15498 16.215 7.5156 17.4006 7.78342C19.2301 8.19666 19.2301 10.8033 17.4006 11.2166C16.215 11.4844 15.6514 12.845 16.3004 13.8728C17.3018 15.4586 15.4586 17.3018 13.8728 16.3004C12.845 15.6514 11.4844 16.215 11.2166 17.4006C10.8033 19.2301 8.19666 19.2301 7.78342 17.4006C7.5156 16.215 6.15498 15.6514 5.12721 16.3004C3.5414 17.3018 1.6982 15.4586 2.6996 13.8728C3.34861 12.845 2.78503 11.4844 1.59937 11.2166C-0.230072 10.8033 -0.230072 8.19666 1.59937 7.78342C2.78503 7.5156 3.34861 6.15498 2.6996 5.12721C1.6982 3.5414 3.5414 1.6982 5.12721 2.6996C6.15498 3.34861 7.5156 2.78503 7.78342 1.59937Z" fill="#130E09"/>
</svg>
