<svg width="113" height="113" viewBox="0 0 113 113" fill="none" xmlns="http://www.w3.org/2000/svg">
<rect width="113" height="113" rx="56.5" fill="#D0FBE6"/>
<rect x="24" y="25" width="64" height="64" rx="32" fill="#45ED9B"/>
<path d="M62.5783 52.9532C61.9014 47.7141 57.4234 43.6666 52 43.6666C46.109 43.6666 41.3334 48.4423 41.3334 54.3333C41.3334 56.8565 42.2095 59.175 43.674 61.0014C44.7514 62.3449 45.3338 63.8336 45.3337 65.4081L45.3334 70.3333H57.3334L57.3347 66.3333H60C61.4728 66.3333 62.6667 65.1394 62.6667 63.6666V59.7613L65.2791 58.6422C65.7367 58.4462 65.7766 57.9822 65.579 57.6716L62.5783 52.9532ZM44 54.3333C44 49.915 47.5818 46.3333 52 46.3333C56.0324 46.3333 59.422 49.3352 59.9335 53.2949L60.0096 53.8835L62.0663 57.1174L60 58.0025V63.6666H54.669L54.6676 67.6666H48.0002L48.0004 65.4084C48.0005 63.2229 47.2129 61.152 45.7544 59.3332C44.6243 57.9238 44 56.1798 44 54.3333ZM68.2047 65.1365L65.9858 63.6572C67.2582 61.7522 68 59.4628 68 57.0001C68 54.5373 67.2582 52.2478 65.9858 50.3429L68.2047 48.8636C69.76 51.1918 70.6667 53.99 70.6667 57.0001C70.6667 60.0101 69.76 62.8082 68.2047 65.1365Z" fill="white"/>
</svg>
